<svg width="49" height="49" viewBox="0 0 49 49" fill="none" xmlns="http://www.w3.org/2000/svg">
<g id="file-add-svgrepo-com 1">
<path id="Vector" fill-rule="evenodd" clip-rule="evenodd" d="M28.5846 4.08594C29.1261 4.08594 29.6454 4.30104 30.0283 4.68393L40.2366 14.8923C40.6195 15.2751 40.8346 15.7945 40.8346 16.3359V18.3776C40.8346 19.5052 39.9206 20.4193 38.793 20.4193H26.543C25.4959 20.4193 24.633 19.6311 24.515 18.6157L24.5013 18.3776L24.4993 8.16927H14.293C13.1654 8.16927 12.2513 9.08336 12.2513 10.2109V38.7943C12.2513 39.9219 13.1654 40.8359 14.293 40.8359H18.3763C19.5039 40.8359 20.418 41.75 20.418 42.8776C20.418 44.0052 19.5039 44.9193 18.3763 44.9193H14.293C10.9102 44.9193 8.16797 42.177 8.16797 38.7943V10.2109C8.16797 6.82819 10.9102 4.08594 14.293 4.08594H28.5846ZM34.7096 24.5026C35.8372 24.5026 36.7513 25.4167 36.7513 26.5443V32.6693H42.8763C44.0039 32.6693 44.918 33.5834 44.918 34.7109C44.918 35.8385 44.0039 36.7526 42.8763 36.7526H36.7513V42.8776C36.7513 44.0052 35.8372 44.9193 34.7096 44.9193C33.5821 44.9193 32.668 44.0052 32.668 42.8776V36.7526H26.543C25.4154 36.7526 24.5013 35.8385 24.5013 34.7109C24.5013 33.5834 25.4154 32.6693 26.543 32.6693H32.668V26.5443C32.668 25.4167 33.5821 24.5026 34.7096 24.5026ZM28.5826 9.01452L28.5846 16.3359H35.9061L28.5826 9.01452Z" fill="#BEBFC0"/>
</g>
</svg>
